<?xml version="1.0" standalone="no"?>
<!DOCTYPE svg PUBLIC "-//W3C//DTD SVG 20010904//EN"
 "http://www.w3.org/TR/2001/REC-SVG-20010904/DTD/svg10.dtd">
<svg version="1.0" xmlns="http://www.w3.org/2000/svg"
 width="235.000000pt" height="215.000000pt" viewBox="0 0 235.000000 215.000000"
 preserveAspectRatio="xMidYMid meet">

<g transform="translate(0.000000,215.000000) scale(0.100000,-0.100000)"
fill="#000000" stroke="none">
<path d="M1001 1837 c-1 -4 12 -34 29 -67 20 -40 26 -61 19 -66 -6 -4 -63 -3
-126 0 -110 7 -116 7 -139 -15 -24 -22 -24 -24 -24 -221 l0 -198 -105 0 -105
0 0 -241 0 -241 -37 6 c-37 6 -37 6 -14 -8 23 -13 16 -14 -85 -20 -60 -4 -118
-8 -129 -9 -11 -1 -22 -12 -26 -27 -9 -32 -9 -387 -1 -460 7 -54 7 -55 53 -72
70 -25 191 -25 434 3 50 5 221 14 380 19 160 5 297 11 305 13 60 15 293 35
503 41 87 3 133 8 144 17 9 8 18 13 20 12 20 -15 24 16 23 221 -1 123 -4 234
-7 245 -5 20 -12 21 -162 21 l-156 0 3 227 c2 153 -1 230 -8 237 -7 7 -77 10
-208 9 -108 -1 -191 1 -184 3 9 4 12 56 12 209 l0 202 -37 7 c-21 3 -82 6
-135 6 -72 0 -100 4 -112 15 -8 8 -25 15 -38 15 -19 0 -30 12 -55 63 -18 34
-32 58 -32 54z m196 -216 c29 -8 38 -36 23 -75 -7 -18 -19 -27 -47 -31 -21 -4
-48 -11 -61 -18 -16 -8 -25 -8 -34 1 -8 8 -15 7 -24 -6 -12 -15 -13 -15 -14
-1 0 13 -15 18 -69 23 -81 8 -104 26 -99 78 3 31 6 33 48 40 50 7 237 0 277
-11z m63 -153 l1 -161 -77 6 c-42 4 -135 7 -206 7 -70 0 -128 4 -128 8 0 4 86
6 191 4 155 -4 193 -2 200 9 5 8 9 73 9 144 -1 150 -1 145 4 145 2 0 5 -73 6
-162z m105 91 c11 -16 1 -19 -13 -3 -7 8 -8 14 -3 14 5 0 13 -5 16 -11z m-1
-68 c4 -5 -3 -7 -14 -4 -23 6 -26 13 -6 13 8 0 17 -4 20 -9z m-106 -238 c-10
-2 -26 -2 -35 0 -10 3 -2 5 17 5 19 0 27 -2 18 -5z m-259 -75 c28 -17 27 -59
-3 -89 -19 -19 -34 -24 -75 -24 -28 0 -51 -4 -51 -9 0 -4 -7 -6 -15 -3 -8 4
-17 2 -21 -4 -3 -5 -13 -9 -22 -8 -10 1 -25 -2 -36 -6 -13 -6 -21 -3 -28 8 -5
10 -18 17 -29 17 -11 0 -35 6 -53 14 -29 12 -34 19 -38 55 -5 51 -1 58 37 64
59 10 312 -1 334 -15z m57 -335 c-4 -10 -57 -13 -232 -13 -125 0 -224 3 -220
7 4 4 92 8 194 9 103 0 197 4 209 8 28 9 33 33 34 196 1 74 5 140 8 145 7 12
14 -334 7 -352z m466 291 c-2 -21 -6 -41 -8 -43 -10 -10 -79 16 -76 28 2 8 -3
11 -13 8 -22 -9 -19 4 9 34 21 23 30 26 58 20 31 -7 33 -9 30 -47z m128 -88
c0 -2 -9 -6 -20 -9 -11 -3 -18 -1 -14 4 5 9 34 13 34 5z m-110 -196 c0 -6 -27
-10 -62 -10 -45 0 -59 3 -48 10 20 13 110 13 110 0z m-32 -87 c-21 -2 -57 -2
-80 0 -24 2 -7 4 37 4 44 0 63 -2 43 -4z m-618 -234 c0 -125 -3 -180 -11 -177
-14 5 -18 346 -4 352 6 3 11 5 12 5 1 1 2 -80 3 -180z m1000 162 c5 -11 10
-39 10 -62 0 -36 -2 -41 -20 -36 -11 3 -23 0 -26 -5 -4 -7 -10 -4 -16 5 -5 10
-29 19 -58 23 -35 5 -47 10 -43 20 3 8 -1 14 -11 14 -19 0 -20 13 -4 40 11 17
24 20 85 20 61 0 74 -3 83 -19z m-664 -4 c1 -1 -1 -20 -5 -42 -6 -36 -8 -38
-18 -20 l-12 20 -15 -20 c-12 -17 -15 -18 -21 -5 -3 9 -3 27 -1 40 2 14 5 29
5 34 1 7 59 1 67 -7z m-453 -3 c29 -5 37 -11 36 -28 0 -11 -3 -15 -6 -8 -2 6
-12 12 -21 11 -10 0 -12 -3 -5 -5 18 -8 4 -33 -28 -50 -16 -8 -29 -20 -29 -27
0 -7 -10 -19 -22 -27 -24 -15 -30 -16 -108 -24 -25 -3 -45 -5 -45 -6 0 -1 -12
-3 -27 -5 l-28 -4 0 74 c0 89 -13 83 230 104 8 0 32 -2 53 -5z m1142 -324 c8
-12 -92 -13 -150 -1 -33 7 -24 9 52 10 52 0 95 -3 98 -9z m-835 -10 c11 -7 5
-8 -20 -4 -43 8 -51 14 -19 14 13 0 31 -5 39 -10z m-193 -24 c-4 -12 -384 -78
-406 -70 -32 11 10 23 118 34 118 11 240 35 255 50 11 11 38 1 33 -14z m273
14 c20 -6 21 -8 5 -8 -11 0 -31 4 -45 8 -20 6 -21 8 -5 8 11 0 31 -4 45 -8z"/>
<path d="M872 670 c0 -14 2 -19 5 -12 2 6 2 18 0 25 -3 6 -5 1 -5 -13z"/>
<path d="M505 1250 c-3 -5 -1 -10 4 -10 6 0 11 5 11 10 0 6 -2 10 -4 10 -3 0
-8 -4 -11 -10z"/>
</g>
</svg>
